<?xml version="1.0" standalone="no"?>
<!DOCTYPE svg PUBLIC "-//W3C//DTD SVG 20010904//EN"
 "http://www.w3.org/TR/2001/REC-SVG-20010904/DTD/svg10.dtd">
<svg version="1.0" xmlns="http://www.w3.org/2000/svg"
 width="2049.000000pt" height="2049.000000pt" viewBox="0 0 2049.000000 2049.000000"
 preserveAspectRatio="xMidYMid meet">
<metadata>
Created by potrace 1.11, written by Peter Selinger 2001-2013
</metadata>
<g transform="translate(0.000000,2049.000000) scale(0.100000,-0.100000)"
fill="#000000" stroke="none">
<path d="M9785 17217 c-22 -8 -56 -22 -75 -32 -26 -13 -421 -294 -518 -368 -7
-5 -14 -8 -16 -6 -2 2 -12 80 -22 172 -17 160 -19 168 -39 164 -18 -5 -66 -21
-325 -114 -67 -24 -85 -36 -182 -130 -134 -129 -188 -158 -298 -158 -59 0 -95
7 -170 34 -84 30 -103 33 -175 29 -131 -7 -220 -68 -272 -188 -43 -96 -47
-103 -88 -144 -94 -92 -240 -127 -364 -87 -198 65 -407 -29 -452 -203 -34
-134 -100 -225 -197 -273 -55 -27 -62 -28 -222 -28 -151 0 -169 -2 -217 -24
-60 -26 -125 -91 -148 -148 -9 -21 -22 -79 -30 -130 -16 -107 -40 -159 -99
-217 -70 -67 -124 -89 -248 -97 -59 -4 -130 -15 -158 -24 -78 -26 -143 -83
-181 -160 -29 -60 -33 -78 -39 -188 -8 -143 -27 -195 -100 -267 -57 -58 -116
-86 -205 -100 -109 -17 -160 -37 -215 -87 -94 -85 -121 -177 -95 -322 15 -81
15 -94 1 -150 -19 -75 -48 -133 -93 -189 -37 -46 -76 -69 -163 -97 -263 -85
-327 -211 -217 -428 26 -51 47 -96 47 -100 0 -13 -131 -221 -166 -264 -19 -23
-69 -67 -112 -97 -159 -112 -206 -179 -206 -291 0 -59 6 -84 38 -157 46 -106
54 -172 32 -256 -30 -117 -79 -188 -168 -241 -59 -35 -134 -124 -153 -182 -22
-66 -16 -171 13 -230 12 -24 20 -44 19 -45 -3 -2 -517 -143 -642 -176 -533
-139 -1142 -128 -1760 32 -269 69 -531 161 -791 276 -199 88 -215 94 -236 83
-26 -14 -22 -26 12 -32 29 -6 63 -44 102 -116 19 -34 53 -51 268 -136 559
-219 1061 -318 1615 -318 423 0 670 42 1306 219 108 29 198 54 201 54 14 0 30
-105 24 -153 -11 -85 -46 -146 -133 -233 -97 -97 -126 -152 -131 -249 l-4 -70
-126 -32 c-70 -18 -185 -51 -256 -73 -245 -75 -525 -105 -928 -97 -434 8 -726
58 -1208 208 -330 102 -470 160 -631 259 -107 67 -137 73 -168 34 -26 -34 -27
-59 -1 -82 24 -20 423 -207 565 -264 551 -222 1134 -322 1692 -290 337 20 673
75 976 160 l135 39 55 -61 c67 -76 82 -105 97 -186 20 -112 -3 -207 -69 -283
-25 -29 -55 -65 -66 -80 -19 -25 -46 -35 -285 -98 -146 -38 -328 -87 -405
-109 -365 -102 -441 -103 -995 -9 -467 79 -611 118 -1020 276 -325 126 -381
146 -388 139 -11 -12 37 -94 70 -119 75 -56 540 -243 773 -310 298 -86 541
-126 821 -134 223 -6 234 -5 431 59 185 59 238 68 419 68 176 0 301 17 423 56
40 14 75 23 76 22 1 -2 7 -30 14 -63 15 -77 62 -146 147 -215 96 -78 133 -141
149 -257 l7 -51 -49 -16 c-326 -106 -735 -199 -1038 -237 -150 -19 -559 -16
-735 5 -511 61 -955 196 -1483 449 -185 88 -208 91 -235 34 -20 -41 3 -69 80
-100 35 -14 116 -50 180 -81 456 -216 973 -368 1458 -428 164 -20 652 -17 820
5 252 34 433 74 745 163 105 30 196 57 204 60 10 3 9 -1 -3 -18 -9 -13 -33
-57 -54 -98 -31 -64 -37 -85 -37 -140 0 -115 54 -184 221 -284 79 -46 84 -60
31 -73 -23 -6 -184 -47 -357 -91 -578 -149 -881 -199 -1145 -189 -243 9 -685
75 -965 143 -222 54 -338 94 -590 199 -48 21 -83 28 -135 29 -66 1 -165 -19
-165 -33 0 -12 200 -108 330 -159 468 -185 830 -261 1394 -293 349 -20 691 12
1021 96 135 34 500 141 669 196 16 5 33 9 37 9 14 0 32 -83 32 -151 0 -54 -6
-78 -31 -130 -61 -126 -66 -221 -19 -316 35 -68 91 -115 200 -167 191 -92 259
-230 213 -434 -53 -232 28 -373 245 -428 35 -9 78 -25 96 -36 50 -30 156 -150
192 -217 l32 -60 -7 -128 c-9 -165 7 -228 71 -290 71 -67 148 -76 325 -37 24
5 31 -3 88 -103 34 -59 80 -137 102 -172 37 -60 40 -70 40 -140 0 -149 53
-251 157 -302 42 -20 65 -23 180 -25 120 -3 136 -5 184 -30 67 -34 158 -120
191 -182 15 -26 33 -83 41 -128 20 -105 49 -165 103 -213 56 -49 118 -67 214
-62 195 11 219 9 304 -32 205 -97 359 -263 373 -402 6 -54 6 -55 42 -61 20 -3
53 -10 73 -14 25 -5 75 -1 150 12 68 12 143 18 189 16 97 -4 133 -27 235 -150
143 -174 162 -187 298 -208 86 -13 138 -8 231 20 96 28 171 33 254 16 95 -20
150 -53 205 -124 152 -198 308 -233 496 -111 36 23 85 48 109 56 63 19 159 16
234 -7 53 -17 79 -33 142 -90 105 -95 168 -125 265 -125 91 0 159 28 238 98
66 59 97 75 180 93 155 32 245 13 333 -71 72 -69 135 -98 209 -98 88 0 158 38
256 137 45 46 99 95 120 109 97 64 245 74 339 24 141 -76 181 -91 241 -95 116
-8 207 56 282 198 44 83 91 123 187 159 70 26 179 44 219 35 17 -4 58 -21 91
-38 55 -28 68 -31 156 -31 93 0 98 1 148 35 61 41 117 119 149 207 62 170 249
264 413 207 36 -13 81 -19 134 -18 101 0 173 32 239 105 49 54 71 110 80 204
8 77 37 136 89 180 52 45 120 70 287 106 237 52 307 86 352 172 20 37 23 61
25 197 2 85 0 189 -4 231 l-8 76 -140 -68 c-115 -56 -160 -85 -250 -160 -831
-690 -1783 -1144 -2870 -1369 -479 -99 -889 -136 -1400 -127 -491 9 -894 62
-1359 178 -162 41 -1334 372 -1372 388 -11 5 -65 51 -120 103 -126 119 -149
135 -324 243 -877 535 -1612 1229 -2125 2005 -301 455 -572 1023 -723 1512
l-30 97 47 10 c144 31 356 42 586 31 139 -6 175 14 175 95 0 22 -8 42 -22 56
-22 20 -29 21 -243 16 -224 -4 -316 -18 -513 -74 -30 -8 -58 -11 -62 -7 -13
13 -75 255 -114 443 -30 144 -32 161 -17 165 30 9 186 35 246 41 97 10 161 32
187 64 26 30 54 89 46 96 -3 3 -119 -13 -258 -35 -176 -28 -256 -37 -260 -29
-12 19 -80 531 -80 602 l0 43 113 12 c61 6 186 21 277 31 280 33 445 43 700
43 348 0 463 -14 872 -103 252 -55 416 -84 424 -76 9 9 -22 71 -48 94 -49 46
-352 130 -618 172 -601 95 -1070 84 -1601 -39 -68 -16 -126 -27 -130 -25 -3 3
-9 65 -13 138 -8 160 -21 210 -92 343 l-55 102 38 6 c21 4 54 11 74 17 l36 9
7 114 c10 162 31 355 62 548 l26 167 47 11 c25 6 88 17 140 24 59 9 104 22
120 33 30 23 69 88 58 99 -18 18 -129 15 -227 -6 -56 -12 -104 -20 -105 -18
-5 5 26 145 69 317 229 900 658 1764 1232 2477 171 213 268 320 483 534 502
500 1018 871 1667 1200 449 228 1033 444 1496 555 113 27 464 76 708 100 1281
123 2480 -94 3600 -651 1246 -621 2236 -1609 2898 -2892 l94 -183 96 143 c52
79 110 161 128 184 67 82 89 165 59 223 -30 60 -71 82 -228 126 -80 22 -165
104 -197 190 -20 54 -21 70 -14 160 13 168 9 216 -18 276 -47 101 -119 151
-268 188 -164 41 -232 86 -281 186 -28 58 -32 77 -39 192 -7 138 -23 189 -74
251 -58 67 -170 112 -286 112 -120 0 -242 54 -293 128 -38 54 -55 101 -68 184
-6 40 -20 97 -31 126 -25 66 -109 159 -174 192 -51 26 -60 27 -279 19 -64 -2
-89 1 -127 18 -79 36 -142 104 -194 209 -37 76 -58 105 -113 156 -89 82 -211
153 -248 143 -14 -3 -59 -37 -98 -76 -39 -38 -75 -69 -79 -69 -12 0 -201 146
-264 205 -42 39 -71 78 -99 132 -96 192 -253 264 -433 198 -144 -52 -175 -58
-249 -45 -70 12 -151 48 -189 83 -13 12 -48 59 -77 103 -29 45 -68 93 -87 107
-123 94 -238 89 -392 -16 -37 -26 -87 -52 -109 -58 -57 -15 -170 -6 -238 20
-55 21 -68 32 -177 152 -67 73 -127 102 -217 107 -92 5 -158 -20 -249 -93 -37
-31 -85 -64 -105 -74 -84 -44 -206 -45 -287 -3 -22 11 -68 46 -104 77 -35 32
-84 67 -109 78 -56 25 -153 31 -206 14z"/>
<path d="M10663 15855 c-28 -20 -47 -77 -39 -119 9 -49 39 -70 105 -76 l56 -5
3 -50 c1 -27 -15 -160 -37 -294 -46 -284 -49 -291 -121 -266 -48 17 -74 13
-107 -17 -21 -20 -21 -20 -28 1 -10 32 -39 42 -94 35 -60 -8 -65 0 -74 100
-12 127 -63 188 -172 203 l-48 6 59 27 c102 47 137 97 137 196 0 114 -60 203
-165 245 -58 24 -171 23 -333 -2 -71 -11 -200 -22 -285 -25 -85 -3 -168 -10
-183 -16 -39 -15 -60 -61 -54 -116 8 -76 45 -96 144 -77 39 7 43 6 52 -17 10
-26 51 -461 51 -538 0 -58 -12 -70 -71 -70 -62 0 -77 -7 -94 -41 -21 -39 -19
-88 5 -126 31 -52 42 -52 295 -12 28 4 101 8 163 8 112 1 114 1 143 30 34 34
39 92 14 141 -18 34 -40 42 -110 38 -49 -3 -50 -2 -62 32 -6 19 -12 63 -12 97
-1 75 8 83 101 83 117 0 143 -32 156 -191 10 -123 28 -165 84 -192 32 -16 45
-17 94 -8 32 6 86 11 120 11 68 0 112 12 130 36 10 13 16 11 41 -15 27 -26 37
-29 119 -35 124 -9 393 -51 596 -92 206 -41 252 -43 272 -11 8 12 18 58 21
102 4 44 16 113 26 154 27 106 25 146 -9 180 -55 56 -154 46 -187 -18 -9 -18
-18 -62 -22 -99 -6 -75 -21 -99 -67 -107 -43 -8 -235 22 -265 41 -23 16 -24
19 -17 102 8 110 21 137 64 135 52 -2 61 -16 55 -82 -5 -53 -3 -60 18 -75 13
-9 40 -16 60 -16 58 0 70 22 85 162 7 68 20 156 30 196 16 72 16 75 -3 100
-15 21 -30 28 -62 30 -53 4 -68 -8 -77 -63 -8 -55 -22 -67 -71 -63 l-38 3 3
69 c4 88 18 120 56 124 52 6 256 -29 279 -48 21 -18 21 -18 4 -72 -23 -75 -22
-139 3 -166 23 -24 89 -45 116 -36 70 22 94 61 94 152 0 33 9 99 21 147 22 93
19 118 -14 140 -13 8 -123 26 -272 45 -260 32 -337 45 -492 79 -110 25 -161
26 -190 6z m-685 -226 c47 -30 55 -102 16 -148 -40 -48 -185 -81 -212 -48 -18
22 -25 159 -10 180 27 36 158 46 206 16z"/>
<path d="M8865 15694 c-85 -39 -184 -74 -278 -99 -46 -13 -62 -22 -77 -48 -26
-41 -25 -63 3 -117 20 -41 25 -45 57 -45 19 1 45 4 57 8 29 10 33 2 123 -248
80 -223 90 -283 54 -332 -28 -37 -88 -66 -149 -71 -44 -4 -55 -1 -83 23 -18
15 -39 39 -46 54 -20 38 -166 446 -166 463 0 7 19 22 43 33 30 14 43 27 45 45
6 36 -15 93 -42 119 -36 34 -82 30 -184 -18 -48 -22 -129 -52 -181 -66 -101
-26 -132 -42 -157 -80 -25 -39 -13 -103 26 -137 36 -33 53 -35 103 -8 52 28
74 26 93 -12 9 -17 47 -123 85 -236 79 -232 115 -309 172 -357 61 -53 122 -68
236 -62 206 10 402 119 472 262 30 61 31 70 27 147 -5 72 -16 112 -87 306 -44
123 -81 237 -81 252 0 33 15 44 72 54 44 8 68 37 68 83 0 49 -16 81 -52 103
-45 27 -60 25 -153 -16z"/>
<path d="M12354 15426 c-28 -28 -34 -41 -34 -78 0 -52 16 -71 75 -91 71 -25
71 -25 -53 -273 -166 -333 -164 -330 -240 -279 -46 32 -73 32 -111 0 -41 -36
-56 -84 -38 -127 18 -44 28 -51 120 -87 101 -40 159 -70 281 -144 125 -75 162
-79 213 -24 24 27 33 46 33 73 0 53 -14 70 -77 94 -32 12 -63 26 -70 32 -18
15 -16 54 4 86 34 55 38 55 135 6 49 -24 117 -52 151 -60 162 -42 311 28 388
184 29 59 33 77 34 147 0 62 -5 91 -22 128 -52 113 -112 160 -319 251 -72 31
-183 89 -245 127 -138 84 -171 89 -225 35z m435 -365 c58 -30 101 -84 101
-127 0 -79 -73 -164 -142 -164 -33 0 -147 56 -155 76 -6 16 31 101 83 192 29
49 52 53 113 23z"/>
<path d="M7474 15097 c-156 -118 -338 -242 -489 -332 -148 -88 -175 -110 -175
-139 0 -12 24 -53 53 -91 29 -39 69 -99 89 -135 41 -73 60 -94 102 -110 39
-14 88 2 121 41 43 51 33 103 -34 184 -51 61 -51 89 -2 122 38 26 64 23 97
-11 35 -35 293 -422 300 -450 8 -32 -7 -51 -60 -78 -66 -33 -86 -56 -86 -101
0 -32 7 -46 39 -78 61 -62 85 -55 248 72 97 74 131 97 268 176 39 23 81 52 94
66 63 68 -17 210 -101 178 -13 -5 -46 -28 -72 -50 -26 -23 -49 -41 -51 -41
-33 0 -73 47 -206 247 -165 247 -171 263 -118 307 52 44 70 35 122 -55 53 -92
110 -118 174 -79 79 48 82 116 11 206 -23 30 -68 94 -98 142 -76 119 -81 119
-226 9z"/>
<path d="M13476 14714 c-89 -21 -173 -71 -253 -150 -164 -162 -243 -350 -214
-509 17 -93 56 -161 140 -246 201 -202 430 -217 653 -42 78 62 173 180 214
268 96 202 56 389 -119 552 -73 68 -165 118 -246 133 -69 13 -102 12 -175 -6z
m231 -255 c24 -12 56 -37 71 -57 23 -30 27 -45 27 -101 0 -60 -4 -73 -41 -136
-23 -39 -69 -100 -103 -137 -138 -150 -251 -177 -343 -80 -47 49 -58 72 -58
124 0 118 184 349 315 396 47 16 85 14 132 -9z"/>
<path d="M6553 14437 c-13 -7 -54 -53 -92 -102 -38 -50 -103 -122 -145 -162
-71 -67 -76 -74 -76 -113 0 -36 6 -48 39 -81 49 -50 86 -52 125 -9 22 25 30
29 46 20 40 -21 346 -303 373 -343 24 -35 28 -50 24 -85 -5 -48 -43 -103 -97
-139 -72 -50 -117 -27 -339 174 -96 87 -176 163 -178 169 -2 6 8 25 22 42 14
16 25 39 25 50 0 42 -71 102 -120 102 -38 0 -74 -29 -125 -102 -28 -39 -83
-101 -123 -137 -87 -79 -112 -116 -112 -166 0 -52 52 -105 104 -105 37 0 40 2
105 77 13 15 26 20 40 16 12 -3 85 -65 163 -137 252 -235 279 -255 374 -276
131 -30 302 68 425 243 85 122 115 238 85 339 -26 91 -48 115 -374 406 -56 50
-82 80 -82 96 0 12 17 39 40 61 44 43 49 68 25 115 -27 52 -101 75 -152 47z"/>
<path d="M14323 13926 c-91 -30 -167 -99 -198 -179 -13 -36 -16 -65 -13 -124
5 -66 13 -94 56 -188 63 -139 77 -187 61 -217 -19 -39 -51 -58 -96 -58 -35 0
-50 6 -82 36 -45 40 -81 106 -81 148 0 32 13 59 47 100 54 65 50 120 -13 176
-53 46 -92 42 -163 -18 -31 -27 -84 -68 -118 -91 -35 -23 -67 -50 -73 -61 -34
-64 41 -165 105 -139 32 12 32 12 39 -40 23 -177 132 -310 291 -356 142 -42
307 24 383 154 23 40 27 57 27 126 0 92 -13 136 -85 294 -28 59 -50 118 -50
130 0 33 47 71 86 71 45 0 105 -54 134 -121 25 -60 22 -84 -21 -148 -16 -25
-29 -56 -29 -71 0 -33 37 -90 71 -109 35 -20 68 -9 125 42 27 24 72 58 99 77
64 42 75 56 75 98 0 26 -9 43 -35 69 -35 35 -50 38 -97 18 -16 -6 -18 -1 -18
49 0 32 -9 79 -21 111 -27 73 -112 165 -185 201 -65 32 -159 40 -221 20z"/>
<path d="M5598 13293 c-8 -10 -25 -43 -38 -73 -48 -115 -215 -441 -296 -576
-102 -169 -108 -198 -51 -251 29 -26 45 -33 77 -33 45 0 90 34 90 67 0 10 7
29 16 42 13 18 22 21 43 16 32 -8 479 -241 504 -263 23 -21 21 -42 -8 -82 -56
-77 -10 -160 89 -160 53 0 81 32 135 157 26 61 80 162 118 225 81 130 89 154
69 203 -12 27 -27 41 -62 57 -44 19 -49 19 -80 5 -25 -12 -37 -28 -54 -74 -37
-99 -44 -101 -158 -44 -99 50 -105 57 -85 98 20 42 36 47 81 23 47 -25 73 -25
100 0 30 28 38 68 21 98 -15 27 -38 40 -179 107 -52 24 -116 56 -143 71 -57
32 -89 27 -118 -19 -31 -50 -22 -78 33 -107 50 -26 60 -49 38 -91 -15 -27 -46
-23 -114 14 -88 48 -89 50 -31 168 56 115 88 159 116 159 10 0 46 -18 80 -40
92 -59 157 -52 194 20 19 37 19 73 0 110 -17 32 -49 52 -131 80 -29 10 -83 39
-119 64 -72 49 -112 58 -137 29z"/>
<path d="M14965 13136 c-44 -24 -108 -54 -143 -66 -41 -15 -73 -35 -93 -58
-27 -31 -31 -41 -26 -79 11 -104 103 -135 207 -68 30 19 65 35 77 35 46 0 80
-83 51 -123 -14 -18 -456 -239 -499 -250 -37 -9 -63 16 -84 80 -21 67 -56 97
-104 89 -70 -11 -117 -64 -107 -119 3 -18 36 -85 72 -148 37 -63 93 -177 125
-254 32 -76 70 -150 83 -163 45 -46 151 -22 176 39 14 33 8 56 -31 117 -36 58
-37 85 -1 110 59 42 468 234 500 235 41 1 71 -32 72 -79 0 -38 -9 -46 -84 -75
-120 -44 -149 -121 -77 -202 44 -49 93 -45 196 14 44 25 110 59 148 74 75 31
90 44 90 78 0 13 -36 86 -78 163 -91 161 -196 378 -266 548 -27 66 -54 125
-60 133 -20 23 -62 14 -144 -31z"/>
<path d="M16564 12338 c-55 -161 -54 -226 9 -448 50 -177 104 -408 135 -582
l19 -108 -36 -9 c-70 -18 -288 -50 -421 -62 -261 -23 -655 2 -969 62 -329 62
-735 193 -1081 349 -160 72 -182 80 -202 69 -26 -14 -22 -26 12 -32 29 -6 63
-44 102 -116 19 -34 53 -52 268 -136 562 -220 1054 -317 1610 -317 264 -1 422
12 626 51 55 11 102 16 106 13 8 -9 35 -267 48 -466 8 -121 8 -161 -1 -167
-16 -10 -196 -37 -359 -54 -159 -17 -571 -20 -721 -5 -325 33 -581 87 -949
201 -329 102 -470 160 -631 259 -107 67 -137 73 -168 34 -26 -34 -27 -59 -1
-82 24 -20 423 -207 565 -264 702 -283 1439 -364 2173 -239 l102 18 0 -136 c0
-133 -14 -396 -25 -477 l-6 -41 -127 -36 c-349 -99 -433 -99 -982 -6 -467 79
-611 118 -1020 276 -325 126 -381 146 -388 139 -11 -12 37 -94 70 -119 38 -29
233 -116 428 -192 436 -169 851 -255 1237 -255 156 0 211 10 387 70 121 41
220 60 311 60 l75 0 0 -30 c0 -104 -104 -689 -126 -706 -48 -38 -612 -51 -874
-20 -508 61 -955 195 -1482 448 -181 86 -203 90 -234 42 -22 -33 -7 -69 38
-89 18 -8 103 -46 187 -85 522 -240 994 -380 1491 -442 125 -16 670 -16 775
-1 39 6 72 9 73 8 6 -6 -78 -303 -135 -480 -30 -93 -62 -176 -71 -183 -13 -11
-54 -13 -192 -9 -260 8 -692 70 -990 143 -222 54 -338 94 -590 199 -48 21 -83
28 -135 29 -66 1 -165 -19 -165 -33 0 -12 200 -108 330 -159 257 -102 513
-178 744 -222 210 -40 646 -80 869 -80 48 0 87 -2 87 -4 0 -20 -151 -362 -235
-531 -254 -515 -541 -944 -950 -1420 -79 -92 -164 -205 -216 -288 l-86 -135
72 -51 73 -51 54 11 c29 5 99 14 155 18 165 14 264 74 325 198 29 60 32 76 38
192 7 140 19 177 87 252 51 56 112 89 206 111 102 24 167 59 222 121 80 88
102 193 69 333 -12 54 -13 80 -5 126 21 118 104 221 204 254 243 78 332 247
252 478 -47 137 -25 271 61 366 45 49 61 56 174 76 120 21 358 84 620 164 124
38 284 85 355 105 293 80 592 116 802 97 144 -14 220 0 237 44 13 35 6 83 -16
105 -22 20 -29 21 -243 16 -258 -5 -256 -5 -830 -157 -297 -79 -703 -183 -796
-204 -15 -3 -15 1 -2 43 9 29 13 73 11 121 -4 64 -10 87 -44 150 -38 74 -39
77 -39 182 0 82 3 111 15 122 8 7 56 23 106 35 51 12 210 55 355 97 402 115
602 162 764 179 97 10 161 32 187 64 26 30 54 89 46 96 -6 6 -478 -68 -573
-90 -38 -9 -167 -45 -285 -80 -281 -83 -470 -135 -489 -135 -10 0 -4 8 14 20
49 32 126 112 148 155 16 30 21 58 21 110 0 76 -22 133 -90 226 -59 81 -83
179 -45 179 36 0 205 62 304 111 130 66 181 77 382 89 93 5 217 16 275 24 332
47 741 70 1019 56 227 -11 342 -27 591 -81 384 -83 520 -108 520 -95 0 19 -31
74 -52 93 -29 28 -222 92 -378 127 -296 66 -695 109 -995 109 -394 -1 -704
-55 -1378 -239 -150 -41 -278 -74 -284 -74 -33 0 8 98 71 169 87 98 115 183
123 382 l6 135 136 43 c75 24 147 49 160 56 l24 12 -34 11 c-63 21 -183 34
-245 28 l-61 -6 -7 37 c-10 64 -53 143 -113 207 -78 84 -107 150 -111 253 l-4
82 44 11 c23 6 165 45 313 86 354 98 528 140 649 158 63 9 108 21 125 33 31
23 69 89 57 100 -4 4 -49 8 -99 7 -81 -1 -133 -11 -432 -88 -187 -48 -397
-103 -466 -122 -69 -19 -129 -34 -132 -34 -3 0 3 25 14 55 32 92 23 272 -19
355 -13 25 -34 43 -72 62 -82 40 -112 79 -150 194 -18 54 -42 117 -52 139 -30
60 -202 345 -209 345 -3 0 -23 -51 -45 -112z"/>
<path d="M7380 11693 c-169 -26 -234 -93 -234 -238 0 -58 4 -79 26 -116 33
-56 87 -95 154 -110 42 -10 73 -9 173 5 139 20 174 14 216 -35 13 -17 33 -56
42 -87 17 -53 18 -133 17 -1127 0 -1105 -2 -1171 -41 -1252 -18 -39 -60 -64
-107 -65 -17 0 -96 3 -176 7 -134 7 -149 6 -191 -12 -61 -27 -97 -76 -111
-149 -23 -128 34 -242 140 -279 86 -30 163 -29 362 1 171 27 205 29 460 28
232 0 295 -4 405 -22 295 -49 378 -40 465 47 93 93 95 228 6 318 -64 64 -115
75 -340 71 -173 -2 -187 -1 -213 18 -70 51 -83 152 -82 624 0 298 7 431 23
447 4 4 103 9 219 11 326 4 323 7 303 -343 -13 -226 15 -313 116 -367 63 -33
203 -33 271 1 123 60 145 176 98 523 -23 170 -40 413 -34 493 2 28 17 171 34
319 30 273 30 320 3 407 -38 119 -183 178 -332 134 -96 -29 -148 -97 -158
-208 -4 -34 1 -124 10 -200 19 -159 13 -201 -34 -240 -52 -44 -92 -52 -270
-52 -183 0 -214 5 -232 38 -26 47 -17 778 10 848 21 54 105 69 413 76 376 8
648 -17 741 -70 25 -13 46 -37 60 -66 23 -45 23 -53 23 -391 l0 -345 28 -56
c47 -96 135 -137 268 -126 85 7 142 36 181 92 46 66 52 129 37 387 -12 225
-12 229 16 492 33 304 30 366 -22 440 -82 117 -195 141 -558 116 -117 -8 -678
-28 -1175 -43 -186 -6 -466 9 -720 37 -223 26 -241 27 -290 19z"/>
<path d="M10546 11690 c-143 -23 -216 -104 -216 -240 0 -73 19 -121 64 -166
58 -59 123 -72 266 -53 187 24 220 18 272 -52 46 -62 48 -97 48 -1218 0 -704
-4 -1075 -11 -1116 -12 -70 -42 -129 -80 -158 -31 -22 -58 -24 -244 -12 -144
8 -171 3 -233 -50 -50 -42 -74 -98 -74 -171 0 -85 16 -127 67 -172 86 -75 185
-86 445 -46 167 26 210 29 440 29 223 0 273 -3 400 -24 192 -32 308 -33 375
-2 60 26 91 54 115 101 38 76 32 193 -13 262 -12 18 -42 44 -67 56 -43 23 -51
23 -190 17 -301 -15 -310 -11 -330 162 -16 136 -26 808 -12 817 6 4 188 8 404
10 294 3 423 8 513 20 330 45 559 143 730 311 134 132 206 266 246 460 23 110
25 329 5 425 -83 392 -430 713 -846 784 -238 40 -612 40 -1037 0 -237 -22
-500 -20 -698 6 -207 27 -267 31 -339 20z m1929 -479 c288 -76 419 -243 419
-531 0 -232 -81 -378 -257 -465 -119 -59 -261 -79 -642 -94 -318 -12 -415 2
-431 63 -3 13 -4 232 -2 487 2 342 6 470 15 485 16 28 71 49 163 63 120 18
142 19 405 16 219 -2 260 -5 330 -24z"/>
<path d="M4523 11561 c-18 -5 -40 -14 -48 -21 -18 -15 -20 -71 -3 -88 9 -9 74
-12 230 -12 139 0 218 -4 218 -10 0 -6 81 -10 223 -10 185 0 226 3 245 16 26
18 28 54 5 83 -16 20 -33 23 -158 32 -191 13 -673 20 -712 10z"/>
<path d="M18463 11561 c-18 -5 -40 -14 -48 -21 -18 -15 -20 -71 -3 -88 9 -9
74 -12 230 -12 139 0 218 -4 218 -10 0 -6 81 -10 223 -10 185 0 226 3 245 16
26 18 28 54 5 83 -16 20 -33 23 -158 32 -191 13 -673 20 -712 10z"/>
<path d="M4635 10824 c-199 -23 -253 -48 -290 -136 -18 -46 -35 -43 176 -23
271 25 367 28 474 14 55 -7 118 -13 140 -13 40 -1 40 -1 43 40 3 35 -1 45 -23
62 -30 24 -130 48 -260 62 -107 12 -106 12 -260 -6z"/>
<path d="M18575 10824 c-147 -16 -199 -30 -237 -62 -29 -25 -74 -100 -64 -109
3 -3 83 2 178 11 301 27 368 29 478 15 58 -7 123 -13 145 -13 40 -1 40 -1 43
40 3 35 -1 45 -23 62 -30 24 -130 48 -260 62 -106 12 -105 12 -260 -6z"/>
<path d="M5347 10758 c-9 -7 -20 -27 -23 -44 -8 -44 22 -74 75 -74 43 0 157
-21 376 -70 286 -63 433 -105 601 -170 95 -36 137 -39 158 -8 23 33 20 74 -6
92 -17 12 -50 16 -144 16 l-122 0 -52 44 c-103 88 -221 131 -480 176 -69 12
-150 28 -181 36 -70 17 -179 18 -202 2z"/>
<path d="M19287 10758 c-9 -7 -20 -27 -23 -44 -8 -44 22 -74 75 -74 43 0 157
-21 376 -70 286 -63 433 -105 601 -170 43 -16 93 -30 111 -30 56 0 84 69 43
110 -18 18 -33 20 -143 20 l-124 0 -61 50 c-111 89 -213 125 -472 170 -69 12
-150 28 -181 36 -70 17 -179 18 -202 2z"/>
<path d="M5308 9263 c-27 -7 -24 -75 5 -108 17 -20 40 -29 107 -42 47 -9 108
-17 135 -17 l50 -1 3 36 c4 47 -33 85 -91 94 -23 4 -60 13 -82 20 -48 15 -104
23 -127 18z"/>
<path d="M19248 9263 c-27 -7 -24 -75 5 -108 17 -20 40 -29 107 -42 47 -9 108
-17 135 -17 l50 -1 3 36 c4 47 -33 85 -91 94 -23 4 -60 13 -82 20 -48 15 -104
23 -127 18z"/>
<path d="M5949 9126 c-29 -17 -51 -59 -43 -81 3 -8 25 -20 48 -26 22 -6 76
-21 118 -34 152 -48 248 -52 269 -13 23 42 -53 92 -203 134 -118 34 -157 38
-189 20z"/>
<path d="M19889 9126 c-29 -17 -51 -59 -43 -81 3 -8 25 -20 48 -26 22 -6 76
-21 118 -34 152 -48 248 -52 269 -13 23 42 -53 92 -203 134 -118 34 -157 38
-189 20z"/>
<path d="M5213 8485 c-53 -37 -34 -121 32 -143 69 -23 125 7 140 75 5 27 2 37
-19 58 -21 20 -35 25 -78 25 -31 0 -62 -6 -75 -15z"/>
<path d="M19153 8485 c-30 -21 -40 -78 -19 -110 18 -27 82 -49 120 -39 33 8
62 42 71 81 5 27 2 37 -19 58 -21 20 -35 25 -78 25 -32 0 -62 -6 -75 -15z"/>
<path d="M5740 8424 c-42 -17 -53 -72 -20 -102 23 -21 88 -39 380 -108 107
-25 204 -43 217 -39 28 7 45 37 41 73 -3 25 -14 31 -142 80 -76 29 -173 62
-215 73 -77 20 -233 34 -261 23z"/>
<path d="M19680 8424 c-42 -17 -53 -72 -20 -102 23 -21 88 -39 380 -108 107
-25 204 -43 217 -39 28 7 45 37 41 73 -3 25 -14 31 -143 80 -77 29 -174 62
-215 73 -76 20 -232 34 -260 23z"/>
<path d="M13098 7037 c-378 -291 -368 -283 -368 -309 0 -22 125 -191 148 -199
10 -4 29 0 45 8 39 20 36 60 -8 113 -19 23 -35 48 -35 55 0 11 199 175 212
175 3 0 -3 -55 -13 -122 -28 -185 -24 -228 20 -228 8 0 38 23 67 50 55 52 106
80 146 80 37 0 86 -36 108 -79 66 -130 -44 -281 -204 -281 -62 0 -84 15 -60
42 25 27 20 68 -10 95 -38 33 -72 29 -112 -11 -29 -29 -34 -41 -34 -80 0 -88
55 -148 153 -168 47 -10 65 -9 118 6 202 56 333 243 285 408 -43 150 -193 228
-323 168 -51 -23 -50 -26 -28 100 19 108 21 176 5 195 -21 25 -65 18 -112 -18z"/>
<path d="M7350 7023 c-43 -22 -62 -41 -87 -83 -60 -99 -40 -180 78 -315 73
-84 91 -116 91 -163 0 -45 -30 -84 -78 -101 -52 -18 -106 -3 -163 46 -79 67
-93 147 -38 228 51 77 55 86 50 106 -8 29 -48 52 -77 45 -15 -4 -41 -31 -69
-73 -25 -38 -68 -94 -96 -126 -28 -32 -51 -67 -51 -77 0 -21 45 -60 69 -60 10
0 22 5 28 11 8 8 17 -2 34 -36 30 -59 105 -129 172 -160 66 -31 162 -34 222
-6 82 38 135 120 135 208 0 57 -33 118 -110 208 -103 119 -114 163 -56 221 43
43 93 46 152 8 55 -36 84 -81 84 -131 0 -32 -9 -52 -40 -94 -45 -61 -49 -80
-19 -110 35 -35 68 -22 119 47 25 33 64 82 88 109 23 26 42 56 42 66 0 29 -38
62 -66 56 -20 -3 -27 3 -45 39 -41 85 -151 156 -254 162 -51 3 -68 -1 -115
-25z"/>
<path d="M7880 6709 c-18 -34 -4 -67 38 -87 24 -11 38 -25 40 -40 2 -14 -37
-91 -114 -220 -167 -282 -169 -285 -224 -242 -47 37 -100 21 -100 -30 0 -34
17 -48 110 -92 41 -19 102 -56 134 -82 65 -50 93 -57 120 -27 28 31 16 63 -31
89 -31 17 -43 30 -43 46 0 30 264 471 286 480 11 4 32 -4 55 -20 23 -16 47
-24 58 -21 16 4 21 -1 23 -21 2 -21 12 -30 47 -43 66 -24 68 -34 21 -151 -95
-234 -162 -387 -176 -399 -13 -10 -22 -10 -47 0 -71 29 -99 24 -110 -20 -9
-33 31 -65 112 -89 41 -12 109 -40 152 -62 76 -40 78 -41 104 -24 21 14 26 24
23 49 -3 27 -9 34 -46 47 -53 20 -62 34 -51 73 11 38 160 399 169 410 4 4 12
-95 19 -220 23 -426 28 -455 87 -481 81 -38 106 -9 207 238 59 144 134 313
154 345 10 18 15 18 45 7 66 -23 98 -11 98 40 0 34 -28 54 -106 75 -32 8 -91
32 -132 54 -40 21 -80 39 -88 39 -19 0 -54 -36 -54 -55 0 -23 37 -55 70 -62
54 -10 50 -35 -46 -268 -48 -118 -89 -213 -91 -211 -2 1 -12 148 -23 326 -22
358 -19 348 -93 369 -23 7 -75 29 -116 48 -41 19 -82 32 -92 30 -13 -4 -19 0
-19 12 0 25 -24 43 -109 85 -40 20 -100 56 -133 81 -67 51 -110 59 -128 24z"/>
<path d="M12413 6580 c-175 -36 -289 -203 -248 -363 43 -169 201 -256 356
-198 76 29 134 72 169 127 l28 45 11 -51 c14 -63 14 -95 1 -142 -21 -74 -102
-137 -177 -138 -30 0 -33 3 -33 30 0 69 -78 93 -131 41 -51 -52 -30 -124 49
-162 133 -65 361 50 407 204 46 155 -19 373 -153 510 -79 81 -182 117 -279 97z
m126 -137 c34 -26 68 -77 81 -122 20 -75 -28 -153 -117 -187 -101 -39 -195 25
-218 148 -13 67 38 145 116 178 35 14 107 5 138 -17z"/>
<path d="M11679 6268 c-90 -32 -142 -76 -180 -153 -29 -59 -31 -71 -27 -137
11 -171 132 -281 290 -264 77 8 178 56 216 102 l30 36 7 -41 c19 -113 -49
-226 -150 -250 -68 -16 -105 -3 -98 33 3 15 -2 37 -11 51 -23 35 -87 35 -121
0 -32 -31 -34 -91 -4 -129 103 -131 389 -65 475 111 40 80 46 215 15 327 -72
263 -242 384 -442 314z m196 -141 c121 -120 61 -281 -110 -295 -63 -5 -110 24
-142 88 -64 126 13 250 156 250 50 0 57 -3 96 -43z"/>
<path d="M9220 6147 c-134 -38 -238 -169 -276 -348 -57 -268 89 -471 341 -473
68 -1 88 3 137 27 70 35 123 94 145 164 20 65 9 98 -36 108 -45 10 -68 -8 -85
-68 -32 -111 -142 -158 -252 -108 -80 36 -124 117 -124 228 0 217 133 393 279
368 117 -20 173 -110 140 -228 -13 -49 -5 -72 30 -87 55 -22 82 7 95 105 4 28
16 79 27 114 23 76 24 114 4 131 -22 18 -66 15 -82 -6 -12 -17 -14 -17 -35 4
-66 61 -216 95 -308 69z"/>
<path d="M11065 6089 c-16 -5 -61 -14 -100 -19 -78 -10 -111 -35 -99 -74 12
-41 28 -45 115 -31 46 7 47 7 58 -26 16 -50 81 -394 88 -466 6 -61 5 -63 -21
-73 -15 -5 -38 -10 -51 -10 -62 0 -99 -45 -75 -89 15 -28 58 -27 162 3 46 13
119 27 163 31 116 9 134 14 151 41 15 22 15 26 -1 50 -16 25 -21 26 -69 21
-28 -4 -61 -9 -73 -13 -16 -4 -24 0 -33 16 -14 26 -71 318 -96 485 -23 164
-35 180 -119 154z"/>
<path d="M9717 6036 c-43 -44 -7 -96 66 -96 40 0 47 -3 52 -23 4 -13 0 -140
-8 -282 -17 -293 -14 -285 -96 -277 -43 4 -51 2 -61 -18 -16 -31 -4 -69 26
-80 14 -6 80 -10 147 -10 123 -1 323 -13 428 -26 88 -10 94 0 103 177 7 140 7
144 -15 161 -26 22 -49 23 -75 4 -16 -12 -20 -31 -25 -106 -7 -124 -7 -124
-167 -116 -68 3 -128 8 -133 11 -10 7 -12 196 -3 233 5 19 13 22 54 22 62 0
72 -13 64 -81 -7 -67 8 -92 56 -92 52 0 63 23 55 119 -5 56 -2 110 10 177 12
69 13 101 6 115 -15 28 -58 36 -87 18 -19 -13 -24 -26 -26 -78 l-3 -63 -63 -3
-63 -3 7 83 c10 118 10 118 102 117 90 0 169 -12 183 -26 6 -6 11 -53 12 -106
2 -106 9 -120 57 -120 52 0 57 14 64 175 8 188 19 178 -189 178 -137 1 -235 7
-401 26 -49 5 -63 3 -77 -10z"/>
</g>
</svg>
