<svg viewBox="0 0 2048.5 1395.7" xmlns="http://www.w3.org/2000/svg"><defs><clipPath id="a"><path d="M0 1812h1812V0H0z"/></clipPath></defs><g clip-path="url(#a)" transform="matrix(1.25 0 0 -1.25 -106 1860)"><path d="M874 1488c-6 0-12-3-18-7l-37-27-3 20-1 8-7-3-17-5c-5-2-11-5-15-10-6-7-13-12-19-14s-13-2-21 2c-8 3-16 4-23 1s-12-9-14-17c-2-5-7-11-14-14s-15-4-20-2c-15 7-34-1-38-17-3-16-15-25-31-23-10 2-18 0-24-4-6-5-9-13-9-22-1-6-4-12-9-16-6-5-13-8-19-7-9 1-17-2-22-8-6-5-9-13-8-22 1-14-10-28-24-29-10-1-17-4-22-11-5-6-5-15-3-24 1-4 0-12-3-18-4-7-9-12-13-13l-16-6c-5-3-8-6-10-11-1-4-1-9 1-14l7-12c-7-11-12-23-20-28s-15-10-18-17-1-15 3-24c3-4 3-12 1-19s-6-13-10-16c-9-4-14-11-16-19-1-6 0-13 4-19l-42-11c-26-8-54-12-80-11-52 2-101 17-148 39-3 1-5 2-7-2 10 1 8-10 15-13 53-23 107-36 165-33 36 2 69 13 103 22 4-10 1-23-9-30-7-6-11-13-11-22v-5c-16-2-30-9-45-11-51-10-101-5-150 10-21 6-42 12-60 25-3 2-8 5-11 1-4-6 2-8 6-10l27-13c77-35 156-37 237-12l6-7c4-3 6-10 7-18 0-7-3-14-6-17l-7-9-37-10c-19-5-40-13-58-11l-70 11c-28 6-54 19-82 29 2-4 2-7 4-8l5-5c43-20 87-34 136-34 18 1 33 12 50 11s33 1 48 7v-4c0-8 6-15 14-21 5-3 8-10 9-17l1-6c-34-10-69-20-105-21-58-2-112 14-164 39-4 2-11 8-14 1-3-6 6-7 10-9 30-15 60-26 92-34 43-9 86-10 129 0 16 3 33 8 49 13l-1-1c-6-9-9-17-7-25s8-13 18-18l5-4c-23-7-47-13-71-18-20-4-41-8-62-5-39 4-77 9-113 26-8 3-16 5-27 0l13-7a322 322 0 01196-24c23 5 46 13 69 19v-2c3-8 2-15 0-20-5-7-6-15-4-22 3-8 9-14 17-17 15-5 22-19 18-34-3-9-2-17 2-24 4-6 11-10 21-12 2 0 9-5 14-12l6-9 2-6c-1-7-2-13-1-18s3-10 7-13c3-4 8-5 14-4l13 2 8-14 6-9 2-6c0-11 1-19 7-25s15-7 26-6c4 1 11-2 17-7 5-5 10-12 10-16 1-10 4-17 10-22s14-5 23-3c7 1 19-3 29-10s18-18 18-25v-5l5-1c2 0 5-2 10-1 16 3 23 4 28 2s10-8 20-21c4-5 10-6 16-7s12-1 17 1h1c6 3 14 3 21 2s12-4 16-9c5-8 11-14 19-15 8-2 16 1 23 7 4 3 11 4 18 4 8-1 14-4 18-8 6-7 14-11 22-12 8 0 15 4 22 11 2 2 10 6 18 6 8 1 15-2 16-3 8-9 17-13 25-11s14 8 20 15c8 9 26 12 36 5 8-6 16-8 24-6s13 10 16 19c1 2 8 7 16 10s17 2 19 1c8-5 16-7 24-4 7 3 13 10 16 19 4 14 20 21 33 16 16-6 35 4 36 22 0 9 3 13 8 17 4 3 11 5 18 7 8 1 14 2 18 4 5 1 10 3 12 7 3 4 4 9 5 14l-1 20v10l-9-4c-5-3-11-5-16-9a517 517 0 00-473-107l-95 27-2 2c-7 6-13 14-23 20a508 508 0 00-240 295c17 3 34 5 52 2l7 1c4 1 6 3 6 7s-3 7-6 7c-14-1-28 0-40-3l-22-5-11 49 25 4c7 1 13 2 15 13l-42-7-7 53 13 1c35 5 70 8 105 5 25-3 48-10 74-14-2 9-6 10-11 11a324 324 0 01-181 5l-2 20c0 12-8 20-11 27l7 2 5 1v4c1 21 4 42 8 62l8 2c8 2 19 0 21 12-7 2-15 0-22-2l-5-1a523 523 0 00402 409l18 2a515 515 0 00555-285l5-9 6 9 11 16 5 9c2 3 2 6 1 9-1 4-4 6-7 7l-9 3c-15 3-23 17-20 33 2 8 1 16-3 22s-11 10-19 11c-10 2-16 6-20 10-4 5-7 12-6 21 0 9-2 16-8 21-5 5-12 7-20 7-10 1-17 3-21 7-5 5-8 11-9 20s-5 16-11 20c-6 5-13 8-21 6-14-4-28 5-33 19-4 11-15 17-23 22l-5 1-2-1-3-2-4-4-5-6-22 17-7 10c-3 8-9 14-16 17s-16 2-24-2c-5-3-13-3-19-1-7 2-13 6-15 11-5 9-11 15-19 17-8 1-16-2-23-8-4-3-12-5-19-4s-14 5-17 10c-6 7-12 12-20 13s-16-2-22-8c-12-11-28-11-38 0a28 28 0 01-20 9zm69-109c-5 1-8-2-9-7l1-6c2-2 3-3 5-3h6c2-1 3-4 2-9l-6-34c0-5-2-8-4-8l-3 1-3 1c-2 0-3 0-5-2l-2-2-1 3c-2 2-3 2-5 2h-2l-3-1c-2 0-3 2-3 5v6c-1 5-2 8-5 11-3 2-7 3-13 4 5 1 9 3 11 5 4 3 6 8 5 14-1 7-3 12-8 15-5 4-11 5-19 5l-11-2a285 285 0 00-26-3l-9 1h-1c-3-1-5-2-6-4-2-1-2-4-2-6l2-6 5-2 3 1 3 1c2 0 3-1 3-3l1-5 3-35c1-5 0-8-2-8h-6c-2 0-4-1-5-3-1-1-2-3-1-6 0-6 3-8 9-8l9 2a78 78 0 0018 1h8c6 1 8 4 8 10l-2 6-5 2-3-1-2-1c-2 0-4 3-4 8v3 5l4 2 12-1c2-2 4-5 4-9v-8-1l4-10c2-2 5-3 8-3l4 1a45 45 0 0013 1l6 3 1 1 1-2c1-2 3-3 5-3h2l9-1 10-1 11-2a581 581 0 0036-7c5-1 7 1 8 5v5l1 5 1 7 2 7c1 6-2 10-8 11l-7-1-4-7v-4-4c0-3-2-4-4-5l-11 1-7 1-6 2v6l1 10c1 2 2 3 4 3 4-1 5-2 5-4l-1-3c0-5 1-7 5-8 5 0 7 2 8 7l1 7a84 84 0 003 19c1 4-1 6-5 7s-7-1-7-4v-2l-1-2c0-2-2-3-6-3l-2 2v3l1 7 2 4h6l12-2 5-1c2 0 3-2 2-3l-1-4-1-5c-1-6 1-10 8-11 2 0 5 0 7 2 2 1 3 3 3 5v6a40 40 0 002 11l1 6c1 4-1 6-6 7l-11 1a323 323 0 00-56 9zm-141-11l-4-1-7-3-8-4-7-1-7-2c-2-1-3-2-4-5v-6c1-5 4-7 7-6l1 1h4l2-5 10-27c2-5 2-9 1-12s-4-6-8-7c-4-2-8-2-11 0-2 1-4 5-6 10l-10 27a1805 1805 0 000 7l2 1h1c3 1 4 4 2 9l-4 5-7 1-6-3a57 57 0 00-14-6l-8-2c-3-1-5-2-6-4v-8l4-4c1-1 3-2 5-1l2 2 3 1c2 1 4-1 5-5l2-5a486 486 0 009-26c3-8 6-13 11-16 8-5 18-5 31 0 12 4 21 11 24 19 2 5 3 10 1 16l-5 16-2 4-3 10-2 5c-2 4-1 7 1 8h2l3 1c2 0 4 2 4 4v6c-1 2-2 4-5 5l-3 1zm75-7c6 0 9-2 9-7 1-6-4-10-15-11l-3 1c-1 0-2 1-2 3v8c-1 2 0 4 2 5l6 1h3zm202-14l-3-1c-2 0-4-2-5-5l-1-6 3-4 3-1 3-1c1 0 2-2 1-4l-2-5-15-30c-3-5-5-7-7-6l-2 2-3 1h-5c-2 0-4-2-5-4v-7c0-2 2-4 4-5l3-1 6-2a89 89 0 0017-9l9-6h7c2 0 3 2 5 4l1 7-4 4-4 1-3 2c-3 1-3 3-2 5l2 4c1 2 3 3 5 2l3-2 4-2c9-5 17-6 24-4s13 6 17 14c4 7 4 15 2 22-3 7-8 12-16 16a294 294 0 01-22 10l-7 4a98 98 0 01-9 5v1l-4 1zm-386-23l-3-1-6-4a340 340 0 00-52-35c-3-2-3-5-1-8l3-4a95 95 0 006-9l3-6c2-2 4-4 6-4 3-1 5-1 8 1 5 4 5 8 1 14l-2 3-3 3c-1 2 0 5 3 7s7 1 10-3l20-30c2-4 3-7 0-9l-3-2-4-1c-4-3-5-7-2-11 4-5 8-6 13-3l7 5a128 128 0 0028 19c6 3 6 8 3 13-3 4-6 5-11 2l-3-2-3-3c-2-1-5 0-8 4l-19 30-3 6 3 4c3 2 6 2 7 0l2-4 2-3c4-6 9-7 14-4l4 6-2 8a125 125 0 01-8 9l-2 5-3 5-4 2h-1zm410-8h1l4-2c8-4 10-9 6-16s-10-9-18-4l-2 1-2 3 1 4 5 10 2 3 3 1zm68-28l-5-1c-10-1-20-7-28-17-9-11-14-22-13-32 0-10 5-19 15-27 9-8 19-11 29-9 11 1 20 7 29 18 9 10 13 21 12 31s-6 19-15 27c-8 7-16 10-24 10zm4-20l9-3c5-4 6-8 5-13 0-5-4-11-10-18-11-13-20-16-28-10-5 4-7 9-5 14 1 5 4 10 9 17 7 8 14 13 20 13zm-561-2h-1c-3 0-5-1-7-4l-5-6-5-7-5-4-5-5c-2-2-2-4-2-6 0-3 1-5 3-6 4-4 7-4 9-2l1 1 1 1c1 1 1 2 2 1l5-3 21-19 7-10c0-4-1-7-4-10-3-4-6-5-10-5-3 0-6 2-10 6l-22 18a1419 1419 0 00-3 7l1 1 1 1c2 2 2 5-2 9-2 2-4 2-7 2-2 0-4 0-5-2l-5-6a58 58 0 00-10-11l-6-6c-2-2-3-4-2-7l3-6c1-2 3-2 5-3l5 2 2 3 1 2c2 2 4 1 8-2l3-3a486 486 0 0020-18c6-6 12-9 18-9 9-1 18 4 27 14s13 19 12 29c0 5-2 10-7 14l-12 12-3 2-8 7-4 4c-3 3-4 5-3 7l2 2 3 2c1 1 2 3 1 5 0 2-1 4-3 5-2 2-3 3-5 3zm623-41c-5 0-11-2-15-6-6-5-9-11-9-18l2-11 4-7 5-13c0-2-1-4-4-6-2-2-4-2-6-2l-8 5c-5 7-5 13-1 17 3 3 4 5 4 7s0 4-2 7l-6 4-6-1-3-3-3-3-5-3-5-4c-4-3-4-7-1-11s6-4 10-1c0-9 2-16 7-22 5-7 12-11 19-12 8-1 15 1 22 6 5 4 8 10 9 16 0 6-2 14-7 23l-5 11c0 2 1 4 3 5 4 4 8 2 12-3 5-6 6-11 2-16l-1-2c-3-3-3-6 0-10 4-4 7-5 11-2l3 3a30 30 0 007 5l4 3c4 3 4 6 1 10l-5 3c-1 1-3 0-6-2 2 8 0 15-5 21a28 28 0 01-22 12zm-701-50c-2 0-4-2-5-4v-1l-3-7a257 257 0 00-11-22 386 386 0 00-17-29c-3-6-1-10 4-13l6-1 4 3 1 3 1 3c1 2 2 2 5 1l4-2 30-16 5-2c2-2 2-3 1-4l-1-3-2-2v-6l4-4c2-1 5-2 7-1s4 2 5 5a216 216 0 018 17l5 9 5 8c1 2 2 5 1 7l-4 5c-5 3-9 2-11-2l-2-4-1-4-4-2-3 1-3 2-7 3-2 2 1 3c2 3 3 4 5 3l1-1h1c4-3 8-2 10 2s0 7-4 9l-7 3a83 83 0 00-16 9c-4 2-7 1-9-3-2-3-2-6 1-7l1-1h1l2-1c2-1 3-3 1-6-1-2-3-3-5-1l-5 2-5 4 2 6 6 12c2 4 4 5 7 4l3-2 4-3c2-1 5-2 7-1 3 0 4 2 6 4v8c0 2-2 4-5 5l-5 2-5 2-6 4-4 3-3 1zm754-11h-3l-4-3a93 93 0 00-11-5l-5-2c-3-2-5-3-6-6v-7c3-6 8-7 14-4l4 2 3 2c2 2 4 1 6-3s0-7-5-9l-32-16c-4-2-7-2-8 1l-2 3-1 4c-2 5-6 6-11 3-5-2-6-6-4-12l4-7a129 129 0 0015-31c3-6 7-7 13-4 4 2 5 5 3 10l-2 3-2 4c-1 2 0 5 5 7l32 15 6 2c2 0 3-2 4-4 2-3 1-5-1-7l-4-1-4-1c-6-4-8-8-5-13 1-3 3-5 5-5 3-1 5-1 8 1a125 125 0 0110 6l5 2 6 2c3 2 4 4 2 7l-3 7a340 340 0 00-28 56c-1 2-2 3-4 3zm123-57l-4-12c-4-10-3-19-1-26l15-63c-22-5-43-7-64-7a369 369 0 00-151 40c-2 0-3-1-4-3 10 1 8-10 15-13a352 352 0 01205-27c2-17 4-34 4-51l-6-1c-51-10-101-5-150 10-21 6-42 12-60 25l-7 3-4-2c-4-6 2-8 6-10l26-13c65-29 129-35 196-23 0-17-1-35-3-52-17-5-34-11-51-9l-69 11c-28 6-54 19-82 29 2-4 2-7 4-8l5-5c43-20 87-34 136-34 18 1 33 12 50 11h7c-2-20-6-40-10-59l-30-3c-58-2-112 14-164 39-2 2-6 4-10 4-2 0-3 0-4-3-3-6 6-7 10-9 29-15 60-26 92-34 35-8 69-9 103-5-4-18-9-36-16-54l-27 1c-39 4-77 9-114 26-7 3-15 5-26 0l13-7a322 322 0 01151-29c-23-60-57-115-102-164-6-7-10-15-14-22l-4-5 5-3 5-4 2-1h2l13 2c18-1 33 14 31 32-2 13 9 26 23 29 17 2 29 19 24 34-4 13 4 29 16 33 9 2 16 7 20 15 3 7 3 16-1 25-2 5-2 12 0 18 3 7 7 12 11 13l14 3c47 10 92 34 143 27l7 1c4 1 6 3 6 7s-3 7-7 7c-13-1-27 0-39-3-36-8-71-19-107-27l1 3c3 8 2 17-3 25-3 4-3 11-2 19l1 4c34 7 67 21 102 24 7 1 13 2 15 13-21-4-40-5-59-11a855 855 0 00-50-14c8 6 14 12 16 20 1 7-3 15-9 22-2 3-4 8-4 13 10 2 19 5 28 10 14 8 28 5 42 7 35 5 70 8 105 5 25-3 48-10 74-14-2 9-6 10-11 11a324 324 0 01-135 14c-35-4-69-15-103-24 2 7 5 12 8 15 5 4 6 9 8 15s2 13 2 20v6c9 2 17 5 26 9-10 3-19 3-27 2l-1 2c-1 6-3 12-7 16-7 6-11 13-11 20v9c25 6 49 14 74 19 8 2 19 0 21 12-8 2-15 0-22-2-23-6-47-11-70-18l2 3c3 6 3 13 2 19l-2 9-2 4c0 1-2 3-4 3-6 2-8 5-10 9l-6 15c-3 8-8 15-11 21zm-478-62c-16 0-24-6-24-19 0-12 6-19 19-19l12 2h7c9 0 14-7 14-23V827c0-16-5-24-14-24h-7l-12 2c-5 0-9-2-13-6-4-3-6-8-6-13 0-13 9-19 25-19h6l23 3 22 2 24-2 20-3h5c17 0 25 6 25 19 0 12-6 19-19 19l-1-1h-3-7a50 50 0 00-8-1c-6 0-10 2-11 6-2 7-2 26-2 60v13l2 1h45c35 0 61 7 79 21s27 35 27 61c0 9-1 18-4 26a82 82 0 01-57 50 204 204 0 01-66 4l-28-3a286 286 0 00-47 0l-19 3h-3zm-255 0c-16 0-24-6-24-19 0-6 2-10 6-13 3-4 8-6 13-6l12 2h6c9 0 14-7 14-23v-97l-1-62c0-9-1-16-3-19-1-3-5-5-9-5a36 36 0 00-8 1h-8-2l-1 1c-13 0-19-7-19-19 0-13 8-19 24-19h6l14 2a196 196 0 0068 0l11-2h9c5 0 10 1 15 5 4 4 6 8 6 14 0 12-9 19-25 19l-5-1h-13c-5 0-8 1-10 5s-3 11-3 21v47l1 14 13 1h12l14-1c3-2 4-6 4-12a72 72 0 00-1-11v-13c0-15 7-22 20-22 14 0 21 7 21 21l-1 17a284 284 0 00-2 61l2 21 1 3v7c0 16-7 23-20 23-14 0-21-6-21-20a77 77 0 011-12 531 531 0 011-12c0-9-6-13-19-13h-13c-6 0-10 1-11 2s-2 4-2 9v29c0 20 1 30 3 33s15 5 37 5c28 0 46-2 54-6 5-2 8-9 8-21v-5a63 63 0 00-1-9v-3l-1-10v-7c0-16 7-24 22-24 14 0 21 7 21 22a234 234 0 01-2 33l1 9 1 12a2629 2629 0 002 23c0 16-9 24-28 24h-12l-21-2-46-1a1525 1525 0 00-78 0l-27 3h-4zm-216-9l-16-1c-3 0-7-1-7-6 1-5 4-5 8-4h29v-2h33c3 0 6 1 6 5 1 3-2 5-5 5l-48 3zm1115 0l-16-1c-3 0-7-1-7-6 1-5 4-5 8-4h29v-2h33c3 0 6 1 6 5 1 3-2 5-5 5l-48 3zm-520-27c38 0 57-15 57-45 0-22-10-35-30-41l-21-3a610 610 0 00-45-1c-7 1-10 3-10 7v58l1 19c3 4 19 6 48 6zm-591-32l-13-2c-8-1-20 1-24-13 22 1 43 5 63 0 3 0 5 0 6 3 0 4-2 7-6 8a97 97 0 01-26 4zm1115 0l-13-2c-8-1-20 1-24-13 22 1 43 5 63 0 3 0 5 0 6 3 0 4-2 7-6 8a97 97 0 01-26 4zm-1059-6c-5-1-13 3-13-5-1-7 6-5 10-5l15-3c21-5 42-9 62-17 3-2 10-4 11 3 1 6-5 6-10 6s-11-2-15 1c-17 17-40 14-60 20zm1115 0c-5-1-13 3-13-5-1-7 6-5 10-5l15-3c21-5 42-9 62-17 3-2 10-4 11 3 1 6-5 6-10 6s-11-2-15 1c-17 17-40 14-60 20zM511 851c-2 0-3-1-3-3 0-11 10-8 16-10 4-2 10-3 10 2-1 10-12 7-17 11h-6zm1115 0c-2 0-3-1-3-3 0-11 10-8 16-10 4-2 10-3 10 2-1 10-12 7-17 11h-6zM566 841c-4 0-6-1-8-4-2-2-1-5 2-5 10-2 20-8 31-6 1 0 2 3 1 4-6 8-17 7-25 11h-1zm1115 0c-4 0-6-1-8-4-2-2-1-5 1-5 11-2 21-8 32-6 1 0 2 3 1 4-6 8-17 7-25 11h-1zM508 790c-4 0-8-1-9-6 0-6 4-7 8-8 5 0 8 2 9 8 0 5-4 6-8 6zm1115 0c-5 0-8-1-9-6 0-6 4-7 8-8 5 0 8 2 9 8 0 5-4 6-8 6zm-1076-6c-2 0-4 0-6-3s2-7 5-8l42-10c3 0 5 2 6 5 1 4-2 4-5 5-11 5-23 10-34 11h-8zm1115 0c-2 0-4 0-6-3s1-7 5-8l42-10c3 0 5 2 6 5 1 4-3 4-5 5-12 5-23 10-34 11h-8zm-523-108l-6-3-2-1a28 28 0 01-3-3h-1l-1-2-1-1-18-13-3-2-1-2v-2l1-2 1-1 1-1 1-2 2-1a28 28 0 001-3 21 21 0 012-3c2-3 5-3 7-1 3 2 3 4 0 8a21 21 0 01-2 2 28 28 0 00-1 1l-1 3 1 1 2 2 15 11-4-23 1-4c1-2 3-2 5-1a9 9 0 011 1l5 5c7 5 12 5 16-1a14 14 0 003-11l-2-5-5-5-5-2-5-2c-3 0-6 1-7 3 3 2 4 5 1 8l-4 3-5-2-3-3a11 11 0 010-8l2-4c3-4 8-7 14-6 6 0 12 2 17 6l8 8 4 9c1 6 0 12-4 18a18 18 0 01-26 4l3 19-1 6-3 2zm-458-2h-1c-5 0-10-3-13-7l-4-9c0-3 0-6 2-9a54 54 0 018-10l3-4 4-7-2-6c-2-3-5-4-8-4s-6 1-9 4c-4 3-6 6-7 9 0 4 1 7 3 10l1 1 1 1 1 1c2 3 2 6-1 8-2 2-5 1-7-1a34 34 0 01-3-5 491 491 0 01-6-8l-3-3-1-1c-2-3-2-5 1-7 2-2 5-2 6 1 2-5 5-10 10-13 5-5 11-7 16-6 6 0 11 2 15 7a17 17 0 013 15l-3 6a93 93 0 01-10 12l-2 3c-1 3-1 6 1 9 2 2 4 3 7 3l8-3c3-2 5-5 5-8 1-2 0-5-2-7v-1l-1-1-2-2c-2-3-2-5 1-7 2-2 5-2 7 1l1 1 2 3 1 1v2a75 75 0 006 6l1 1c2 2 2 5-1 7h-5c-1 4-4 8-8 11-5 4-10 6-15 6zm37-26c-1 0-2 0-3-2v-3l2-3 2-1h2c1-1 1-4-1-7l-18-31c-2-3-4-4-6-3a8 8 0 00-1 1 11 11 0 00-2 1v1c-3 1-5 1-6-2-2-2-1-5 2-6l1-1h1l4-2a86 86 0 007-4l2-1 4-4h1c3-2 6-2 7 1 2 2 1 4-1 5l-3 2h-1c-2 1-2 3 0 7l19 31c1 3 3 4 5 3l1-1 3-2a4 4 0 014 0c-1-2 0-4 3-5a21 21 0 014-1c2-1 2-3 1-6l-6-14-3-7-3-7-2-6c-2-4-3-5-5-4l-2 1-1 1h-1c-3 1-4 0-6-2-1-3 0-5 4-6l1-1 5-1a221 221 0 0010-4l3-2h1v-1h1c3-1 5-1 7 2 1 3 0 5-3 6h-1-1a16 16 0 01-2 1c-2 1-2 3-1 6l14 33 2-48c1-5 3-8 6-10h7l5 9 9 22 4 9 1 2 1 2 2 4h3l1-1c4-1 6-1 7 2s0 5-3 6l-1 1h-1l-3 1a46 46 0 00-8 2l-2 2-4 2h-1c-3 2-6 1-7-2v-3l3-2a15 15 0 012-1h1l1-1c1 0 2-2 1-4l-2-7-12-28a3380 3380 0 01-3 50v2l-1 3-3 1-4 2a45 45 0 00-10 4l-1 1h-5c1 2 0 4-3 5l-1 1-4 2a118 118 0 00-8 4l-2 1-4 3v1h-1c-1 1-3 2-4 1zm364-11c-4 0-7-1-11-4-7-3-11-8-13-14s-1-12 2-18c3-5 7-9 13-10 5-2 11-1 17 2 7 3 10 7 12 12 2-5 2-10 1-15-1-4-3-7-7-9l-6-2h-4v5l-4 3-5-1a7 7 0 01-3-10c2-4 6-6 11-6 5-1 9 0 14 3 8 4 13 10 14 18 2 8 0 17-5 27-5 8-10 14-17 17l-9 2zm-1-10h4c3-1 6-4 8-8 2-3 2-7 1-10s-3-6-7-8c-3-2-7-2-10-1s-6 3-8 7c-2 3-2 7-1 10 1 4 3 7 7 9l6 1zm-54-14l-8-2c-7-2-11-6-14-12-3-5-4-11-1-18 2-6 5-10 11-12 5-3 11-3 17-1 7 2 11 6 13 11 2-6 1-11 0-15-2-5-5-7-9-9l-6-1-4 1v5c0 2-1 3-3 3h-5a7 7 0 01-4-9c1-4 4-7 9-8 4-1 9-1 15 1 8 3 14 8 17 16 2 8 2 17-2 27-3 9-7 16-13 19-4 3-8 4-13 4zm0-9l5-2c3-1 6-4 7-8v-10c-2-4-5-6-9-7h-10c-3 2-5 4-6 8-2 4-2 8 0 11 1 3 4 6 8 7a15 15 0 005 1zm-198-2c-6 0-11-2-16-5l-8-9-5-13-1-14 4-11c3-7 10-12 18-14 7-1 14 0 19 3 6 3 10 8 11 15 1 3-1 5-4 6s-5-1-6-4l-1-4-1-2c-2-3-4-4-7-5h-8c-6 1-10 4-12 9s-2 11 0 19c1 8 4 13 8 17 4 3 9 4 14 3 4-1 7-3 9-6s3-6 1-10a28 28 0 000-3c-1-3 0-5 3-6 4-1 5 0 6 4v1l1 3a46 46 0 003 11l1 4c1 4-1 6-4 6h-3l-2-3-2 2-3 2a30 30 0 01-8 4 31 31 0 01-7 0zm145-4h-1l-4-1h1a32 32 0 00-5-1h-1l-2-1a16 16 0 01-4 0c-3-1-4-2-4-5 1-3 3-4 6-4a20 20 0 013 1h1l1 1 2-2 2-4 5-26a142 142 0 001-13l-2-2h-4-1c-4-1-6-3-5-5 0-3 2-5 6-4l2 1h3a68 68 0 0023 4c4 1 6 3 5 6s-3 4-7 3h-1a441 441 0 00-4-2c-2 0-3 2-4 5a472 472 0 01-3 15l-2 10a266 266 0 00-3 18v1l-1 3a4 4 0 01-3 2zm-108-4c-3 0-5-1-5-4l1-4 3-1h4c2 0 3-2 3-5l-2-37c0-3-1-5-3-5a8 8 0 00-2 0h-1l-1 1h-1c-3 0-4-1-4-4s1-5 5-5h1a241 241 0 0044-2c4-1 6 1 6 5v1a12 12 0 010 2v3l1 1a998 998 0 000 10c1 4-1 6-4 6s-5-2-5-5v-2a27 27 0 010-4v-1l-1-1-1-5-7-1-12 1h-4v5a44 44 0 010 5v7l1 3 2 1 4-1c2 0 3-1 3-2v-1a44 44 0 01-1-5c0-3 2-5 5-5 3-1 5 1 5 4v6a122 122 0 00-1 7 54 54 0 002 11v2c1 3-1 5-4 5s-5-1-5-5v-3-2-1l-4-2h-6v5a69 69 0 010 1v6l3 4h8l11-1c2-1 2-4 2-8v-5c0-4 1-6 4-6s5 1 5 4v2a50 50 0 010 4 63 63 0 001 13c1 3-1 5-6 5a365 365 0 01-2 0h-5l-22 1h-2l-4 1-7 1h-1-1z"/></g></svg>